<svg fill="none" height="100" viewBox="0 0 109 100" width="109" xmlns="http://www.w3.org/2000/svg" xmlns:xlink="http://www.w3.org/1999/xlink"><linearGradient id="a" gradientUnits="userSpaceOnUse" x1="6.41414" x2="100.721" y1="79.5517" y2="25.1039"><stop offset=".1" stop-color="#f27121"/><stop offset=".6" stop-color="#e94057"/><stop offset="1" stop-color="#8a2387"/></linearGradient><linearGradient id="b" gradientUnits="userSpaceOnUse" x1="29.38" x2="87.2525" y1="47.3705" y2="80.7833"><stop offset=".0000002422" stop-color="#8a2387"/><stop offset=".7" stop-color="#8a2387" stop-opacity="0"/></linearGradient><linearGradient id="c" gradientUnits="userSpaceOnUse" x1="59.9218" x2="104.078" y1="61.7751" y2="61.7751"><stop offset="0" stop-color="#8a2387" stop-opacity=".7"/><stop offset=".5" stop-color="#8a2387" stop-opacity="0"/></linearGradient><path d="m66.0387 39.8157s-8.6341 10.1865-5.3858 23.7888 16.0597 24.695 32.351 18.2451c16.2911-6.4499 21.1421-37.4675 8.3651-55.2999-12.7767-17.8324-32.9531-33.2747-64.8032-23.53118-31.85002 9.74348-57.2936 61.86688-12.1465 96.98148 0 0-13.8811-14.9278-12.51-34.1231 1.3711-19.1954 13.9396-38.8478 37.3624-43.5324 0 0-19.6524 13.0254-20.2236 34.7344-.5714 21.709 11.8828 45.5891 47.4169 42.3896 0 0-18.1286-4.3611-23.7907-22.6726-5.6621-18.3116 7.6944-33.1208 13.3644-36.9802z" fill="url(#a)"/><path d="m76.465 99.4679c-35.5341 3.2001-47.9878-20.6801-47.4168-42.3895.557-21.1992 19.3128-34.1187 20.1915-34.7125-5.8642 5.4616-14.7452 16.082-15.1262 30.5714-.4824 18.3507 8.3404 38.2522 32.5438 42.0389 5.2552 3.3966 9.8077 4.4917 9.8077 4.4917z" fill="url(#b)"/><path d="m104.078 71.0804c-2.646 5.0247-6.386 8.9152-11.074 10.7698-16.2909 6.4491-29.1028-4.6436-32.3514-18.2456-3.227-13.512 5.2729-23.6552 5.3843-23.7881.0013-.0013.0013-.0013.0013-.0013-2.2003 4.2209-4.6272 11.237-2.6497 19.5179 3.2485 13.602 16.0592 24.6947 32.3513 18.2457 3.251-1.2876 6.0482-3.5537 8.3382-6.4984z" fill="url(#c)"/></svg>