<svg height="400" viewBox="0 0 310 400" width="310" xmlns="http://www.w3.org/2000/svg"><path d="m248.3 355.7q-.5.2-1-.1-.1 0-.3-.1c-.3.2-26.5-4.9-47-7.8-15-2.2-30.1-2.9-45.3-3.1-14.2-.2-28.5-.3-42.6 2.6-7.8 1.7-15.9 3.4-23.5 6.3-2.8 1-5.4 2.7-8.3 3.7 6.7-29.1 48.1-32.3 72.6-30.6 16.8 1.2 33.7 4.1 50.1 7.9 15.1 3.6 33.7 9.7 45.3 21.2z"/><path d="m210.5 344.8c-16.1-.2-32-2.7-48-3.2-13.8-.5-28.1-1-41.7 1.3-8 1.4-15.8 3-23.6 5.1-2 .6-8.3 1.7-12.4 3.4.5-.7 1.1-1.3 1.7-2 6-5.7 12.5-9.2 20.1-12 19-5.1 38.2-4.9 57.7-4 14.4.6 31.3 5.8 45.4 8.3 5.1 1.2 10.1 2.5 15 3.9-4.8-.5-9.6-.8-14.2-.8z" fill="#fff"/><path d="m170.7 390.3c-6.1 3.1-11 .7-17.3.7-3.5 0-7.1-.5-10.5-1.6-1.2-.4-.6-2.1 0-2.7q.9-.9 1.8-1.7c.3-.4.5-.8.9-1q.7-.5 1.6-1c2.6-1.9 5.6-3.3 9.1-3.7 5.5-.6 13.2-.4 16.9 4.3l-.1.1c2.1 1.7-.2 5.5-2.4 6.6z"/><path d="m134.1 135.1c-2.2 8.3-4.1 17.8-8.7 25.1-4.4 6.9-9.6 13.3-15.6 18.9-11 10-24.3 17.4-39.8 16.5-14.8-.9-27.9-8.3-36.1-20.8-9.8-14.8-11.8-31.9-8.6-48.3 1.7-8.3 3.3-16.6 6.6-24.4 10.7-25.1 38.8-44.9 66.4-43.5 17.4.9 28.1 12 33.6 26.3 6.1 15.8 6.1 35.6 2.2 50.2z"/><path d="m132.9 122.1c-.3 9.2-2.4 19-5.3 27.6-3.5 10.3-10.3 18.6-18.1 26.1-14.2 13.8-33.4 20.5-52.5 13.5-17.7-6.5-28.5-25.9-30.1-43.9-.9-9.7.5-19.2 3.5-28.2 5.3-14.7 14.8-29.1 26.7-38.4 14.8-11.5 40-18.3 56.5-6.6 15.3 10.7 19.9 32.5 19.3 49.9z"/><path d="m105.5 27.8c-2.1-.1-4-.9-6-1 .4 0-1.1.2-1.3.2q-.6.3-1.3.4c-1.3.3-2.5.1-3.6-.4q-.1 0-.3-.2c-1-.6-1.8-1.7-1.9-3.1-.5-3 1.5-6.7 4-8.2q.9-.5 1.7-.9 0-.1 0-.1-.9.5.3-.2 1.2-.7 2.4-1.4c1.6-.7 3.1-1.1 4.7-1.3 3.3-.5 7.2-.3 9.7 2 5.9 4.3-2.4 14.5-8.4 14.2z"/><path d="m186.2 213.6c0 .2-.2.4-.4.2-8.4-13.4-23.9-24.6-38.6-30.3-4.1-1.5-8.4-3.3-12.8-3.8-7.3-.9-11.1 3.7-13.6 9.8-3.1 7.8-5.1 15.5-6.6 23.7-2.9 16.2-3.2 35.7 6.7 49.7 11.1 15.7 27.1 18.3 44.8 13.7 1.3-.3.8 1.6 0 2-19.4 8.3-38.1 3.1-51-13.1-12.7-16-15.7-40-10.6-59.4 2.8-10.8 7.9-21.1 16.3-28.8 5.3-4.7 11.2-5.6 17.6-4.3.6-2.5 1.2-5 1.7-7.5.3-1.8 1.9-3.6 3.8-3.5 1.7.1 2.1 1.7 1.6 3.1-1 3-2.1 6-3.4 8.9q.2.1.4.2c19.3 6.5 36.5 20.3 44.1 39.4z"/><path d="m134.1 135.1c-2.2 8.3-4.1 17.8-8.7 25.1-4.4 6.9-9.6 13.3-15.6 18.9-11 10-24.3 17.4-39.8 16.5-14.8-.9-27.9-8.3-36.1-20.8-9.8-14.8-11.8-31.9-8.6-48.3 1.7-8.3 3.3-16.6 6.6-24.4 10.7-25.1 38.8-44.9 66.4-43.5 17.4.9 28.1 12 33.6 26.3 6.1 15.8 6.1 35.6 2.2 50.2z"/><path d="m132.9 122.1c-.3 9.2-2.4 19-5.3 27.6-3.5 10.3-10.3 18.6-18.1 26.1-14.2 13.8-33.4 20.5-52.5 13.5-17.7-6.5-28.5-25.9-30.1-43.9-.9-9.7.5-19.2 3.5-28.2 5.3-14.7 14.8-29.1 26.7-38.4 14.8-11.5 40-18.3 56.5-6.6 15.3 10.7 19.9 32.5 19.3 49.9z" fill="#fff"/><path d="m268 108.7c3.2 22 .3 43.2-12.2 61.9-8.3 12.4-19.5 22.7-34.7 25.4-14.6 2.7-29.1-1.3-40.1-11.5-13-12.1-19-28.2-19.7-44.9-.4-8.5-.8-17 .6-25.3 4.3-26.9 26.9-52.8 54.1-58 17.2-3.3 30.1 4.9 38.9 17.6 7.1 10.2 11.4 22.6 13.1 34.8z"/><path d="m264.8 109.8c1.8 8.9 2.1 18.9 1.3 28-.9 10.9-5.6 20.5-11.4 29.7-10.4 16.7-27.5 27.9-47.8 25.5-18.7-2.1-33.8-18.3-39.6-35.4-3.2-9.2-4.1-18.8-3.3-28.3 1.7-15.5 7.5-31.7 16.8-43.6 11.6-14.6 34.5-27.2 53.3-19.9 17.4 6.8 27.1 26.9 30.7 44z" fill="#fff"/><path d="m105.5 27.8c-2.1-.1-4-.9-6-1 .4 0-1.1.2-1.3.2q-.6.3-1.3.4c-1.3.3-2.5.1-3.6-.4q-.1 0-.3-.2c-1-.6-1.8-1.7-1.9-3.1-.5-3 1.5-6.7 4-8.2q.9-.5 1.7-.9 0-.1 0-.1-.9.5.3-.2 1.2-.7 2.4-1.4c1.6-.7 3.1-1.1 4.7-1.3 3.3-.5 7.2-.3 9.7 2 5.9 4.3-2.4 14.5-8.4 14.2z"/><path d="m216.2 38.2c-1.1.1-2 0-3-.1q-.4.1-.9.1c-2.7.2-5.3-1-8-1-2.3.1-4.1 1.2-6.3 1.6-2.9.4-5.7-.8-6.1-3.9-.5-3.5 1.8-6.5 4.3-8.6 4.3-3.7 11.4-4.7 17.6-3.8 2.6 0 5.2.6 7.4 2 5.9 3.7.9 13-5 13.7z"/><path d="m99.1 120.4c-.7 7.1-7.2 12.3-14.3 11.5-7.2-.7-12.4-7.1-11.6-14.3.7-7.2 7.2-12.3 14.3-11.6 7.2.8 12.4 7.2 11.6 14.4z"/><circle cx="92.8" cy="113.6" fill="#fff" r="3.5"/><path d="m220.8 128.5c-.8 7.1-7.2 12.3-14.4 11.5-7.1-.7-12.3-7.1-11.5-14.3.7-7.2 7.1-12.3 14.3-11.6 7.2.8 12.3 7.2 11.6 14.4z"/><circle cx="214.5" cy="121.7" fill="#fff" r="3.5"/><path d="m294.4 113.3c-10.3 5.9-12.7-11.2-13.2-16.2-1-12.5 5.3-52.1 6.9-59.5.3-1.2 2.3-3.1 3.2-1.5 2 3.4 6.4 28.7 7.5 37.1 1.6 11.8 7.4 33.3-4.4 40.1z"/><path d="m288.2 107.4c-.7-.9-1.2-2-1.5-2.6-5.1-12.3-1.6-27 .4-39.6.6-3.8 1.2-7.7 1.6-11.6q.3-2.3.6-4.7c.2-1.4 1.3-4.3.9-5.6 1.6 5.3 2.1 11.8 2.8 16.3 1.1 8.4 3.1 16.8 3.9 25.2.6 6.2.8 12.2-.6 18.2-1 4.3-4.2 10-8.1 4.4z" fill="#fff"/><path d="m18.7 109.7c-8 4.6-9.9-8.6-10.3-12.6-.8-9.6 4.1-40.4 5.4-46.1.1-.9 1.7-2.4 2.4-1.1 1.6 2.6 4.9 22.2 5.8 28.7 1.3 9.2 5.8 25.8-3.3 31.1z"/><path d="m13.8 105.2c-.5-.8-.9-1.6-1.1-2.1-4-9.5-1.3-20.9.2-30.7.5-3 1-6 1.3-9q.3-1.8.5-3.6c.2-1.1 1-3.4.7-4.4 1.2 4.1 1.6 9.2 2.1 12.7.9 6.5 2.4 13 3.1 19.5.4 4.8.6 9.4-.5 14.1-.8 3.3-3.3 7.8-6.3 3.5z" fill="#fff"/><path d="m41.7 45.8c-4.8 2.7-5.9-5.1-6.1-7.5-.5-5.7 2.5-24 3.2-27.4.1-.5 1-1.4 1.5-.6.9 1.5 2.9 13.2 3.4 17 .8 5.5 3.4 15.4-2 18.5z"/><path d="m38.8 43.1c-.3-.4-.5-.9-.7-1.2-2.3-5.7-.7-12.5.2-18.2q.4-2.7.8-5.4.1-1.1.2-2.2c.1-.6.6-2 .5-2.5.7 2.4.9 5.4 1.2 7.5.6 3.9 1.5 7.7 1.8 11.6.3 2.9.4 5.6-.3 8.4-.4 1.9-1.9 4.6-3.7 2z" fill="#fff"/></svg>