<svg height="400" viewBox="0 0 310 400" width="310" xmlns="http://www.w3.org/2000/svg"><path d="m249.3 355.7q-.5.2-1-.1-.1 0-.3-.1c-.3.2-26.5-4.9-47-7.8-15-2.2-30.1-2.9-45.3-3.1-14.2-.2-28.5-.3-42.6 2.6-7.8 1.7-15.9 3.4-23.5 6.3-2.8 1-5.4 2.7-8.3 3.7 6.7-29.1 48.1-32.3 72.6-30.6 16.8 1.2 33.7 4.1 50.1 7.9 15.1 3.6 33.7 9.7 45.3 21.2z"/><path d="m211.5 344.8c-16.1-.2-32-2.7-48-3.2-13.8-.5-28.1-1-41.7 1.3-8 1.4-15.8 3-23.6 5.1-2 .6-8.3 1.7-12.4 3.4.5-.7 1.1-1.3 1.7-2 6-5.7 12.5-9.2 20.1-12 19-5.1 38.2-4.9 57.7-4 14.4.6 31.3 5.8 45.4 8.3 5.1 1.2 10.1 2.5 15 3.9-4.8-.5-9.6-.8-14.2-.8z" fill="#fff"/><path d="m171.7 390.3c-6.1 3.1-11 .7-17.3.7-3.5 0-7.1-.5-10.5-1.6-1.2-.4-.6-2.1 0-2.7q.9-.9 1.8-1.7c.3-.4.5-.8.9-1q.7-.5 1.6-1c2.6-1.9 5.6-3.3 9.1-3.7 5.5-.6 13.2-.4 16.9 4.3l-.1.1c2.1 1.7-.2 5.5-2.4 6.6z"/><path d="m135.1 135.1c-2.2 8.3-4.1 17.8-8.7 25.1-4.4 6.9-9.6 13.3-15.6 18.9-11 10-24.3 17.4-39.8 16.5-14.8-.9-27.9-8.3-36.1-20.8-9.8-14.8-11.8-31.9-8.6-48.3 1.7-8.3 3.3-16.6 6.6-24.4 10.7-25.1 38.8-44.9 66.4-43.5 17.4.9 28.1 12 33.6 26.3 6.1 15.8 6.1 35.6 2.2 50.2z"/><path d="m133.9 122.1c-.3 9.2-2.4 19-5.3 27.6-3.5 10.3-10.3 18.6-18.1 26.1-14.2 13.8-33.4 20.5-52.5 13.5-17.7-6.5-28.5-25.9-30.1-43.9-.9-9.7.5-19.2 3.5-28.2 5.3-14.7 14.8-29.1 26.7-38.4 14.8-11.5 40-18.3 56.5-6.6 15.3 10.7 19.9 32.5 19.3 49.9z"/><path d="m106.5 27.8c-2.1-.1-4-.9-6-1 .4 0-1.1.2-1.3.2q-.6.3-1.3.4c-1.3.3-2.5.1-3.6-.4q-.1 0-.3-.2c-1-.6-1.8-1.7-1.9-3.1-.5-3 1.5-6.7 4-8.2q.9-.5 1.7-.9 0-.1 0-.1-.9.5.3-.2 1.2-.7 2.4-1.4c1.6-.7 3.1-1.1 4.7-1.3 3.3-.5 7.2-.3 9.7 2 5.9 4.3-2.4 14.5-8.4 14.2z"/><path d="m187.2 213.6c0 .2-.2.4-.4.2-8.4-13.4-23.9-24.6-38.6-30.3-4.1-1.5-8.4-3.3-12.8-3.8-7.3-.9-11.1 3.7-13.6 9.8-3.1 7.8-5.1 15.5-6.6 23.7-2.9 16.2-3.2 35.7 6.7 49.7 11.1 15.7 27.1 18.3 44.8 13.7 1.3-.3.8 1.6 0 2-19.4 8.3-38.1 3.1-51-13.1-12.7-16-15.7-40-10.6-59.4 2.8-10.8 7.9-21.1 16.3-28.8 5.3-4.7 11.2-5.6 17.6-4.3.6-2.5 1.2-5 1.7-7.5.3-1.8 1.9-3.6 3.8-3.5 1.7.1 2.1 1.7 1.6 3.1-1 3-2.1 6-3.4 8.9q.2.1.4.2c19.3 6.5 36.5 20.3 44.1 39.4z"/><path d="m135.1 135.1c-2.2 8.3-4.1 17.8-8.7 25.1-4.4 6.9-9.6 13.3-15.6 18.9-11 10-24.3 17.4-39.8 16.5-14.8-.9-27.9-8.3-36.1-20.8-9.8-14.8-11.8-31.9-8.6-48.3 1.7-8.3 3.3-16.6 6.6-24.4 10.7-25.1 38.8-44.9 66.4-43.5 17.4.9 28.1 12 33.6 26.3 6.1 15.8 6.1 35.6 2.2 50.2z"/><path d="m133.9 122.1c-.3 9.2-2.4 19-5.3 27.6-3.5 10.3-10.3 18.6-18.1 26.1-14.2 13.8-33.4 20.5-52.5 13.5-17.7-6.5-28.5-25.9-30.1-43.9-.9-9.7.5-19.2 3.5-28.2 5.3-14.7 14.8-29.1 26.7-38.4 14.8-11.5 40-18.3 56.5-6.6 15.3 10.7 19.9 32.5 19.3 49.9z" fill="#fff"/><path d="m269 108.7c3.2 22 .3 43.2-12.2 61.9-8.3 12.4-19.5 22.7-34.7 25.4-14.6 2.7-29.1-1.3-40.1-11.5-13-12.1-19-28.2-19.7-44.9-.4-8.5-.8-17 .6-25.3 4.3-26.9 26.9-52.8 54.1-58 17.2-3.3 30.1 4.9 38.9 17.6 7.1 10.2 11.4 22.6 13.1 34.8z"/><path d="m265.8 109.8c1.8 8.9 2.1 18.9 1.3 28-.9 10.9-5.6 20.5-11.4 29.7-10.4 16.7-27.5 27.9-47.8 25.5-18.7-2.1-33.8-18.3-39.6-35.4-3.2-9.2-4.1-18.8-3.3-28.3 1.7-15.5 7.5-31.7 16.8-43.6 11.6-14.6 34.5-27.2 53.3-19.9 17.4 6.8 27.1 26.9 30.7 44z" fill="#fff"/><path d="m106.5 27.8c-2.1-.1-4-.9-6-1 .4 0-1.1.2-1.3.2q-.6.3-1.3.4c-1.3.3-2.5.1-3.6-.4q-.1 0-.3-.2c-1-.6-1.8-1.7-1.9-3.1-.5-3 1.5-6.7 4-8.2q.9-.5 1.7-.9 0-.1 0-.1-.9.5.3-.2 1.2-.7 2.4-1.4c1.6-.7 3.1-1.1 4.7-1.3 3.3-.5 7.2-.3 9.7 2 5.9 4.3-2.4 14.5-8.4 14.2z"/><path d="m217.2 38.2c-1.1.1-2 0-3-.1q-.4.1-.9.1c-2.7.2-5.3-1-8-1-2.3.1-4.1 1.2-6.3 1.6-2.9.4-5.7-.8-6.1-3.9-.5-3.5 1.8-6.5 4.3-8.6 4.3-3.7 11.4-4.7 17.6-3.8 2.6 0 5.2.6 7.4 2 5.9 3.7.9 13-5 13.7z"/><path d="m100.1 120.4c-.7 7.1-7.2 12.3-14.3 11.5-7.2-.7-12.4-7.1-11.6-14.3.7-7.2 7.2-12.3 14.3-11.6 7.2.8 12.4 7.2 11.6 14.4z"/><circle cx="93.8" cy="113.6" fill="#fff" r="3.5"/><path d="m221.8 128.5c-.8 7.1-7.2 12.3-14.4 11.5-7.1-.7-12.3-7.1-11.5-14.3.7-7.2 7.1-12.3 14.3-11.6 7.2.8 12.3 7.2 11.6 14.4z"/><circle cx="215.5" cy="121.7" fill="#fff" r="3.5"/><path d="m295.4 113.3c-10.3 5.9-12.7-11.2-13.2-16.2-1-12.5 5.3-52.1 6.9-59.5.3-1.2 2.3-3.1 3.2-1.5 2 3.4 6.4 28.7 7.5 37.1 1.6 11.8 7.4 33.3-4.4 40.1z"/><path d="m289.2 107.4c-.7-.9-1.2-2-1.5-2.6-5.1-12.3-1.6-27 .4-39.6.6-3.8 1.2-7.7 1.6-11.6q.3-2.3.6-4.7c.2-1.4 1.3-4.3.9-5.6 1.6 5.3 2.1 11.8 2.8 16.3 1.1 8.4 3.1 16.8 3.9 25.2.6 6.2.8 12.2-.6 18.2-1 4.3-4.2 10-8.1 4.4z" fill="#fff"/><path d="m19.7 109.7c-8 4.6-9.9-8.6-10.3-12.6-.8-9.6 4.1-40.4 5.4-46.1.1-.9 1.7-2.4 2.4-1.1 1.6 2.6 4.9 22.2 5.8 28.7 1.3 9.2 5.8 25.8-3.3 31.1z"/><path d="m14.8 105.2c-.5-.8-.9-1.6-1.1-2.1-4-9.5-1.3-20.9.2-30.7.5-3 1-6 1.3-9q.3-1.8.5-3.6c.2-1.1 1-3.4.7-4.4 1.2 4.1 1.6 9.2 2.1 12.7.9 6.5 2.4 13 3.1 19.5.4 4.8.6 9.4-.5 14.1-.8 3.3-3.3 7.8-6.3 3.5z" fill="#fff"/><path d="m42.7 45.8c-4.8 2.7-5.9-5.1-6.1-7.5-.5-5.7 2.5-24 3.2-27.4.1-.5 1-1.4 1.5-.6.9 1.5 2.9 13.2 3.4 17 .8 5.5 3.4 15.4-2 18.5z"/><path d="m39.8 43.1c-.3-.4-.5-.9-.7-1.2-2.3-5.7-.7-12.5.2-18.2q.4-2.7.8-5.4.1-1.1.2-2.2c.1-.6.6-2 .5-2.5.7 2.4.9 5.4 1.2 7.5.6 3.9 1.5 7.7 1.8 11.6.3 2.9.4 5.6-.3 8.4-.4 1.9-1.9 4.6-3.7 2z" fill="#fff"/><path d="m296.5 880.6c-3-.4-5.7-1.8-8.5-2.9-4.8 7.4-7.6 17.6-10.4 25.2-3.9 10.4-7.6 20.8-11.1 31.3-5.6 17.1-11.6 34.2-19.8 50.2-14.4 28.2-35.5 56.4-70.2 58.9-33.8 2.4-60-25.9-75.8-52.7-9.4-15.9-17.3-32.7-27.6-48.1-9-13.6-19.6-25.8-30.6-37.8-5.8-4.3-11.2-9.2-15.8-14.9-.4-.5.7-1.2 1.1-.8 17.1 16.9 41.8 23.9 64.8 28.7 23.1 4.9 46.9 6.6 70.4 4.2 42.7-4.4 83.3-21.1 117.8-46.1-2.5-.5-5-.9-7.5-1.2-1.3-.1-1.2-1.6-.3-2.1 7.9-5 26.4-12.9 32.3-1.1 2.6 5.4-3.9 9.9-8.8 9.2z"/><g fill="#fff"><path d="m160.5 929.6c25.1-1.8 49.9-10.5 73-20.1 10.5-4.3 20.9-9.3 30.7-15.4-13.4 33.3-53.9 44.4-86.5 49.4-18.3 2.8-36.9 4.4-55.4 1.7-15.8-2.4-30-11.1-41.1-22.5 26.2 7.4 55.2 8.5 79.3 6.9z"/><path d="m135.4 1018.4c-4.6-11.5 1.7-23.4 9.1-32.4.7-.9-.4-1.4-1.1-.7-5.4 5.4-14.6 16.8-15.1 26.3-6-6.2-11.4-13.1-16.2-19.9q0 0 0 0c7.1-7.1 19.5-12.9 29.5-13.9 6.2-.7 11.2 1.1 15.1 5.9 1.5 1.8 1.9 3.6 3.5 5.3-10 8.7-17.4 19.9-19.9 33.5q-2.5-2-4.9-4.1z"/><path d="m181.5 1034.3c-14.5 2.7-27.7-2.1-39.4-10.5 7.5-22 24-36.7 45.6-45.6 18.7-7.7 38.2-7.2 51.2 8.5-12.7 22.9-29.6 42.3-57.4 47.6z"/><path d="m224.9 970c.8-5.4 6.2-10.2 10.7-12.1 2.5-1.1 5.7-1.7 8.5-1.9 2.2-.2 6.5-.4 9.1.3-1.7 4-3.4 8.1-5.3 12.2-4-2.2-8.3-3.7-12.8-4.2-.3-.1-.6.4-.3.5 4.6 1.4 8 4 11.8 6.6-1.7 3.6-3.5 7.2-5.3 10.8-4.3-6.3-10-10.2-16.4-12.2z"/><path d="m273.4 902.9c-6.3 16.8-12 33.9-18.9 50.5-2.3-1.6-5.3-2.1-7.9-2.8-4.8-1.4-9.6.7-13.8 2.9-5.5 2.8-11.3 9.5-9.5 16-10.3-2.8-22.2-1.3-33.2 2.5-9.5 3.3-18.5 8-26.4 14.1-.3-9.7-13.4-13.4-21.3-12.3-11.7 1.5-23.8 7.6-30.8 17.2-3.6-5.1-6.8-10.2-9.6-14.9-8.9-14.7-17.1-29.8-27.4-43.7-5.5-7.5-12-13.8-18.9-19.6 6.9 3.6 14.2 6.4 21.8 8.8 8.9 14.5 20.9 24.7 37.9 28.7 20.6 4.8 41.5 2.3 62-1.2 35.3-6.1 80-20.9 92.3-58.5 4-2.7 7.8-5.5 11.5-8.5-3.4 6.8-5.5 14.7-7.8 20.8z"/></g><path d="m199.1 821.7c.1.2-.2.5-.3.3-8.3-13.2-23.5-24.3-38-29.9-4.1-1.5-8.3-3.3-12.6-3.8-7.3-.8-11 3.7-13.4 9.7-3 7.7-5 15.3-6.5 23.3-2.9 16-3.2 35.1 6.6 49 10.9 15.4 26.6 18 44.1 13.5 1.3-.3.8 1.6 0 1.9-19.1 8.2-37.5 3.1-50.2-12.9-12.5-15.7-15.5-39.4-10.5-58.4 2.8-10.7 7.8-20.9 16.1-28.4 5.2-4.6 11.1-5.5 17.3-4.2.6-2.4 1.2-5 1.7-7.5.3-1.7 1.9-3.5 3.8-3.4 1.6.1 2 1.8 1.5 3-1 3-2.1 6-3.4 8.9q.3.1.5.1c18.9 6.5 35.9 20 43.3 38.8z"/><path d="m199.1 821.7c.1.2-.2.5-.3.3-8.3-13.2-23.5-24.3-38-29.9-4.1-1.5-8.3-3.3-12.6-3.8-7.3-.8-11 3.7-13.4 9.7-3 7.7-5 15.3-6.5 23.3-2.9 16-3.2 35.1 6.6 49 10.9 15.4 26.6 18 44.1 13.5 1.3-.3.8 1.6 0 1.9-19.1 8.2-37.5 3.1-50.2-12.9-12.5-15.7-15.5-39.4-10.5-58.4 2.8-10.7 7.8-20.9 16.1-28.4 5.2-4.6 11.1-5.5 17.3-4.2.6-2.4 1.2-5 1.7-7.5.3-1.7 1.9-3.5 3.8-3.4 1.6.1 2 1.8 1.5 3-1 3-2.1 6-3.4 8.9q.3.1.5.1c18.9 6.5 35.9 20 43.3 38.8z"/><path d="m225.6 607.5c21.6-1.4 37.1 17 43.9 34.9.1.3-.2.4-.4.2-9.7-11.7-26.1-26.3-42.9-21.9-16.1 4.2-21.6 22.3-29.2 34.9-1.8 3.1-5.6-.8-5.5-3.2.9-19.9 11.7-43.3 34.1-44.9z"/><path d="m132.1 690.7c2.5 8 4 16.5 4.7 24.9 1.1 15.2-.8 30.5-5.7 44.9-2.1 6.1-4.9 12.2-8.1 17.7-10.6 18.4-29.1 34.5-50.9 36.4-17.6 1.6-34.3-4.7-46.1-17.9-12.6-14-18.1-31.8-19.6-50.3-.9-10.7.6-21.6 3.2-32 3.1-12.1 9.2-23.2 16.5-33.3 10.2-13.9 25.5-24.4 41.8-29.6 22.7-7.4 45.4 2.1 57.1 22.5 2.9 5.3 5.3 10.9 7.1 16.7z"/><path d="m133.4 717.4c1.2 13.5 0 27.4-4.3 39.9-6.5 19.4-18.8 39.7-38.3 48.1-5.3 2.2-11.5 3.8-17.2 4.3-11.3 1-23.2.3-32.9-5.9-9.1-5.7-16.7-14.5-21.7-23.8-2.8-5.1-5-10.8-6.4-16.5-2.8-11.2-2.8-22.6-.9-33.7 3.6-18.2 12.2-36.7 24.5-49.7 15.3-16.1 43.6-28.5 65-17.8 7 3.5 14.4 11.2 19.2 17.3 5.2 6.6 8.5 14.4 10.5 22.6 1.2 4.9 2 10 2.5 15.2z" fill="#fff"/><path d="m124.9 639.2c.1 2.4-3.7 6.2-5.5 3.2-7.6-12.6-13.2-30.7-29.3-34.9-16.8-4.3-33.2 10.3-42.9 22-.1.2-.5.1-.4-.1 6.8-18 22.3-36.4 43.8-35 22.4 1.5 33.3 24.9 34.3 44.8z"/><path d="m105.4 735.7c-1.7 16.1-16.2 27.8-32.3 26.1-16.1-1.8-27.8-16.2-26.1-32.3 1.7-16.2 16.2-27.8 32.3-26.1s27.8 16.2 26.1 32.3z"/><path d="m99 721.3c-.5 4.4-4.4 7.5-8.7 7-4.4-.4-7.5-4.3-7-8.6.4-4.4 4.3-7.5 8.6-7 4.4.4 7.5 4.3 7.1 8.6z" fill="#fff"/><path d="m290.5 727.2c.1 8.4.6 18-1.9 26.1-2.4 7.7-5.7 15.2-10.1 22.1-8 12.4-18.8 22.8-33.8 25.9-14.4 2.9-28.8-.8-39.9-10.6-13.1-11.8-19.4-27.6-20.4-44.1-.6-8.3-1.1-16.7 0-25 3.8-26.7 25.6-52.8 52.4-58.5 16.9-3.6 29.9 4.3 38.9 16.6 9.8 13.6 14.8 32.5 14.8 47.5z"/><path d="m286.1 715c2.1 8.8 2.5 18.7 1.9 27.7-.7 10.8-5.1 20.5-10.6 29.6-10 16.8-26.7 28.2-46.8 26.3-18.5-1.7-33.8-17.5-39.9-34.2-3.4-9.1-4.4-18.6-3.8-28 1.3-15.4 6.7-31.5 15.7-43.4 11.2-14.8 33.5-27.7 52.3-20.8 17.3 6.4 27.3 26 31.2 42.8z" fill="#fff"/><path d="m290.5 727.2c.1 8.4.6 18-1.9 26.1-2.4 7.7-5.7 15.2-10.1 22.1-8 12.4-18.8 22.8-33.8 25.9-14.4 2.9-28.8-.8-39.9-10.6-13.1-11.8-19.4-27.6-20.4-44.1-.6-8.3-1.1-16.7 0-25 3.8-26.7 25.6-52.8 52.4-58.5 16.9-3.6 29.9 4.3 38.9 16.6 9.8 13.6 14.8 32.5 14.8 47.5z"/><path d="m286.1 715c2.1 8.8 2.5 18.7 1.9 27.7-.7 10.8-5.1 20.5-10.6 29.6-10 16.8-26.7 28.2-46.8 26.3-18.5-1.7-33.8-17.5-39.9-34.2-3.4-9.1-4.4-18.6-3.8-28 1.3-15.4 6.7-31.5 15.7-43.4 11.2-14.8 33.5-27.7 52.3-20.8 17.3 6.4 27.3 26 31.2 42.8z" fill="#fff"/><path d="m262.9 731.1c-1.5 14.2-14.2 24.5-28.4 23s-24.5-14.3-22.9-28.4c1.5-14.2 14.2-24.5 28.4-23 14.1 1.5 24.4 14.2 22.9 28.4z"/><path d="m257.3 718.5c-.4 3.8-3.9 6.6-7.7 6.2s-6.5-3.8-6.1-7.7c.4-3.8 3.8-6.5 7.6-6.1s6.6 3.8 6.2 7.6z" fill="#fff"/><path d="m726 859.6c-.5.1-1 .1-1.5 0-1.1-.4-2.2-.8-3.2-1.3 3.4 12.1-1.1 33.3-4.7 38.7-9.2 13.7-28 16.9-43.4 15.5-12.2-1.1-24-4.8-36.2-6.1-12-1.3-24.6.4-35.9 4.8-12.5 4.9-20.6 16.3-27.7 27.1-7 10.8-12.7 22.3-20.7 32.4-11.3 14.2-27.8 25.6-44.9 31.5-14.5 5-30.1 6.6-46.2 4.1-10.9-1.7-22-5.1-28.7-14.5-5.7-8.1-8.4-19.8-5.3-29.5 1-3.2 2.5-6.3 4.4-9.2 13.2-20.3 32.3-34.4 54.8-41.4-11.6-1.2-23.5-4.5-31.4-11.9-20.7-19.1 29.5-30.1 42-23 .3.2-.1.6-.3.5-10.3-2.5-29.3 2.5-37.7 8.6-9.5 7 14.4 12.9 17.1 13.4 20.4 3.8 42.2 1.7 62.4-2.4 14.9-3 29.7-6.9 45-7.3 12.5-.4 24.9 3.9 37.4 1.6 14.4-2.7 25.3-13 34.8-23.3 4.9-5.3 9.6-10.8 14.8-15.8 2.5-2.4 11.9-12.6 15.4-12-6.8-1.2-13.7-.7-20.8 1.8-1.3.4-.9-1.5 0-1.8q.5-.2 1.1-.5c.3-.5.8-1.3 1.1-1.5 2.6-1.9 5.3-4.1 8.3-5.4 8.5-3.6 17.3-4.8 26.5-3.3q2.2.4 4.3.9.7.4 1.4.8c9.6 6.4 15.3 17.4 17.8 28.5z"/><path d="m479.4 1001.5c-12-.2-27-1.5-37.1-8.8-5.2-3.9-7.5-9.1-10.4-14.7-12.7-24.7 31.2-52.7 54.8-62.4q3.9-1.8 7.9-3.3c3 0 6 0 8.7-.1q2.6-.1 5.1-.4-.2.1-.4.3c-21.6 14.6-37.1 35.1-43.9 59 11.3-20.5 24.6-40.9 45.1-52.4q.1-.1.2-.1c11.7-8.4 24.3-11.5 37.7-15.9 10-3.2 20.7-3.9 31.2-4.1 1.8 0 4.2-.1 6.9-.1 1.4 0 11.8-.3 16.5 1.2-2 .8-3.6 1.6-4.6 2-20.4 8.7-30.3 30.4-41 48.3-3.9 6.6-7.9 13.1-12 19.6-5.3 8.3-13.1 14.6-21.5 20-13 7.8-28 12.2-43.2 11.9z" fill="#fff"/><path d="m700.5 898.7c-12.4 8.1-29.5 1.7-42.8-1.1-6.8-1.5-13.7-2.6-20.6-3.1 6.2-4.3 11.5-10.2 16-15.6 6.5-7.9 19.3-27 32.8-35.3 1-.2 2-.6 3.3-.8 10.1-1.5 15 7.8 18.3 15.8 4.7 11.2 6.1 26.9-2.7 36.4q-2 2.2-4.3 3.7z" fill="#fff"/><path d="m427 913.5c-5.7 5.3-17.2-6.2-20-10.2-6.4-9.1-10.8-23.3-4.9-33.7 3.5-6.2 14.1-14.5 18.3-4.6.6 1.4 0 3.8 0 5.3-.6 14.1 1.1 28.7 7 41.5.3.5 0 1.3-.4 1.7z"/><path d="m420.1 908.9c-6.5-4-11.2-9.4-13.9-16.6-2.5-6.6-5.9-19.3 1.8-24 3.6-2.2 7.9 0 9.2 3.7 1.6 4.5-.3 9.6-.2 14.2.1 8.1 1.3 17.4 6.3 24q.1.3.3.5c-1.2-.5-2.4-1.1-3.5-1.8z" fill="#fff"/><path d="m409.6 933.9c-2 3.7-5.1 6.7-7 10.5-1.7 3.2-2.5 6.8-3.3 10.3-1.5 7.1-2.7 14.8-8.5 19.7-3.4 3-9.2 4.6-12.3 0-2.8-4.2-3.5-11.4-2.2-16.3 1.9-7.2 7.3-13.4 12.9-18.2 3.7-3.3 8.1-5.4 12.9-7 1.1-.4 5.4-2.3 7.2-1.3.7.4.9 1.1.3 2.3z"/><path d="m399.4 942.6c-2.8 5.2-4 11.2-5.4 16.9-.8 3.5-2.6 8.6-6.3 9.8-7 2.3-7.2-6.4-6.5-10.7 1.3-8.2 6.4-14.6 13.1-19.1 2.1-1.4 7.6-4.8 11.1-4.9-2 2.6-4.4 4.9-6 8z" fill="#fff"/><path d="m555.1 743.9c-5.3-.9-10.7-.8-16.1-.3-10.6 1-24.8 2.1-33.7 8.6-13 9.5-6.5 28.2-1.1 40.1 6.5 14.1 14.8 27 26.4 37.5q4 3.6 8.4 6.7.4.4.9.7 2.5 1.7 5 3.4.1 0 .3.1c1.9 1.3 3.9 2.5 6 3.6 4.7 2.6 9.7 4.9 14.7 6.8 2.8 1.1 6 2.2 9.3 2.9-25.1 9.7-54 .3-70.8-20.7-8.6-10.8-14.4-24-16.4-37.7-1.6-10.9-3.3-23.9.4-34.6 3.2-9.4 17-16.2 25.7-18.8 9.6-3 19.8-4.7 29.9-4.4 1.2-5.3 2.8-10.5 3.8-15.8.1-.5 1.2-1.3 1.4-.4.7 4.5 2.2 11.7.3 16.5q.2 0 .5.1c25.7 2.7 55.3 15.5 68.8 38.6.6 1-23.2-26.4-63.7-32.9z"/><path d="m697.7 711.5q-.5-.1-.9-.1c-.5.3-1 .4-1.4.4-32.3-.4-63.4 12.5-93.1 21.3-1.3.4-2.4 0-2.3-1.3q.1-.9.4-1.8c-1-.9-1.2-2.5-.1-4.1 16.2-25.1 52.2-48.5 86.7-50.9 1.4-.1.8 1.5-.3 1.6-25.6 2.9-52 17.7-68.3 36q1.5-.8 3.2-1.5c9.6-3.9 19.5-7.7 30.1-9.2 14.8-2.1 37.7-4.8 49.1 5.5 1.8 1.5-.9 4.3-3.1 4.1z"/><path d="m439.7 718.3c8.4-8.2 26-6.9 37.4-5.8 8.1.8 15.8 3.4 23.3 6q1.3.5 2.5 1.1c-13.1-13.5-33.7-23.9-53.4-25.3-.8 0-1.4-1.2-.3-1.2 26.5.7 54.8 17.4 68 36 .8 1.2.7 2.4 0 3.2q.3.7.4 1.3c.1 1-.8 1.3-1.7 1.1-23.1-5.8-47.2-14.6-71.9-13.2-.3 0-.7-.1-1-.3q-.4.1-.7.1c-1.7.3-3.9-1.7-2.6-3z"/><path d="m713.1 641.1c.4 1.5-3 4.2-4.4 2.6-3.6-4.1-6.8-8.7-11.6-12-5.4-3.9-6.2-2.1-11.7-.1-10.7 3.9-21.6 7.2-31.8 12-11.9 5.5-23.1 12-34.2 18.6-6 3.6-11.6 9.8-19.3 10.9-5.2.7-9.1-2.4-8.4-6.9 2.1-12.9 16.9-24.2 25.6-34.1.2-.3 1.1-.5 1 0-1.2 4.4-3.6 9.2-5.4 14.2 16.3-11.2 35.5-20.5 53.8-27.2 8.1-3 24.8-10.1 33.2-3.7 7.4 5.7 11 17.7 13.2 25.7z"/><path d="m587.9 674.3c-.3 2.1-2.9 4.5-5.4 4.7-20.9 1.6-12.8-28.7-2.6-35.6.2-.2.6 0 .5.3-2.1 5.1-1.3 11.7 1.7 16.5 3.1 5 6.5 8.1 5.8 14.1z"/><path d="m537.3 661.4c-.1 6.8-1 13.6-7.4 17.4-2.5 1.5-5.8 2.7-8.3.4-3.5-3.2-5-7.9-8.1-11.4-3.9-4.6-7.9-9.2-12.3-13.4-9.7-9.3-25.5-24.6-36.4-7.7-1 1.6-5.1 2.7-4.5-.4 3.2-15.8 18-23.9 33.4-17.8 9.5 3.9 18.7 9.9 25.8 17.4 4.2 4.4 7 9.1 9.7 14 1.1-2.8 2.4-5.5 2.5-5.8 1.7-4.6 3.5-9.3 3.6-14.2 0-.4.8-1.1 1.1-.7 4.7 6 1.1 15.4.9 22.2z"/><path d="m1502.3 369.8c-5.4-3.8-10.9-7.5-17.1-10.1-8.8-3.7-18-5.6-27.4-6.9-18.6-2.4-37.1-1.9-55.5 1.4-36.8 6.5-75 19.1-104.8 42.2-.7.5-1.3-.3-.7-.9 29.5-27.5 71-45.6 110.5-52.4 21.9-3.7 44.1-4.5 66 0 9.1 1.9 18.9 5.5 26.8 11.3q-.2-.5-.4-.9c-4.3-7-8.5-13.4-14.7-18.6 9.1 3.8 16.7 10.1 21.7 18.9 3.5 6.1 4.6 12.9 2.5 19.6-1 3.1-2.7 6-4.5 8.9-.6-.3-1-.7-1.4-1.3-1.7-3-1.8-7.2-1-11.2z"/><path d="m1378.9 394.8q.1-.4.3-.8c5.4-7.2 14-13 22.6-13.9 6.4-.8 12.9 1.2 19.2 3.4-8.5.9-17 2.6-25.2 5-5.7 1.7-11.6 3.6-16.9 6.3z"/><path d="m1522.4 95.6c5.7 9.5 8.1 20.4 9.5 31.3 1.1 8.6 2.3 17.6 2.2 26.4-.7 7.9-1.7 16.2-4.7 23.2-3.7 8.8-8.5 17.2-14.4 24.7-10.8 13.6-24.7 24.5-42.6 26.3-11.4 1.2-22.4-1.1-32-6.5 2.6 2 5.3 3.7 8.2 4.9 28.1 12.3 59.7 1.5 83-16 1-.7 1.3.6.6 1.2-21.4 18.3-55.9 35.5-83.9 21.6-2.4-1.2-4.6-2.6-6.8-4.1q2.3 3 4.1 6.2c.1.2-.2.4-.4.2-9.9-11.5-28.1-21.2-45.5-26-4.8-1.4-9.8-2.9-15-3.4-8.7-.7-13.1 3.3-16 8.5-3.6 6.7-6 13.3-7.8 20.4-3.5 13.9-3.8 30.7 7.9 42.8 13 13.4 31.8 15.7 52.7 11.8 1.6-.3 1 1.3 0 1.6-22.8 7.2-44.8 2.7-60-11.2-15-13.8-18.5-34.4-12.5-51.1q.5-1.4 1.1-2.7c-12.4 10.3-27.4 18.4-42.6 19.8-12 1.1-24.4 1.2-36.2-2-11.6-3.2-17.7-10.8-27.3-16.8-.1-.1 0-.2.1-.2 9.1 4.1 16.9 8.3 26.8 10.5 8 1.8 15.8 2.4 23.8 2.3-18.6-2.5-34.9-12.4-45.5-28.4q-2.7-4.3-4.9-8.7c-7.5-10.6-10.6-26.3-10.2-38.4.4-17.6 3.6-34.9 10.9-50.9.3-.9.8-1.6 1.2-2.4q.1-.5.3-1 .8-1.7 1.6-3.3.1 0 .3 0c4-7.2 8.9-13.7 14.4-19.8q2.7-3.2 6-6.1 2.8-2.8 5.7-5.4c6-5.3 12.1-10.8 19.3-14.4 2.2-1.1 4.4-2 6.6-2.7q-8.6-2.9-17.3-5.5c-23.6-7-33.5 9.4-46.7 25.8-.5.6-1.3.1-.9-.6 7.5-13.1 13-27.4 26-36.3 14.1-9.5 30.2-12.6 46.9-9.5 18.8 3.4 34.9 9.8 51.9 18.4 3.6 1.9 7.2 3.9 11 5.4 1.6-5.2 3.6-10.6 4.3-15.6.5-3.5 5.9-9 9.5-5.6 9.9 9.4 10.5 28.4 3 39.7-1.5 2.2-3.2 4-4.9 5.5 1 2 1.9 4 2.7 6.1 9.3 24 9.7 54.3 2.2 78.8q0 0 0 0c-2.6 13.2-7.2 25.8-14.5 36.6 3.6-1.3 7.4-1.7 11.3-1.5 6.8 1.9 13.9 2.6 20.6 5 4.4 1.6 13.1 3.8 16.3 7.5-10.7-12.3-16.3-29.5-17-45.5-.5-12.1 1.1-22.8 4.5-33.1 2.3-13.4 6.9-27.5 14.8-37 5.1-6 11.2-12.6 18.6-15.9q3-1.3 6.1-2.3-2.4-.2-4.8-.2c-4-.1-9.2.8-14 .9-2.9.6-5.7.9-8.6.7-2.1-.2-3.8-1-5-2.3-1.6-2.8-2.3-6.3-2.7-9.5-.2-2.3-.3-15.8 4.1-15.1q.2.1.4 0c.7.8 1.6 1.5 2.8 2 4.5 2 10.5.8 15.1.1 14.5-2.2 28.9-3.2 43.5-2.3 15 1 29.1 6 41.2 14.7 5.8 4.2 11 9.3 15.1 15.1 1.7 2.4 3.2 4.7 4.3 7.4-.6 4.1-4.9 8-8.9 7.7q-1.2-.1-2.5-.3c-1.6-1.2-3.3-2.3-5.2-3.1-.9-.4-1.6.8-1.2 1.6z"/><path d="m1369.9 194c-4.4 6.3-9.6 12.6-15.3 18.1-13.8 13.4-31.2 23.2-50.9 22.8-7.2-.1-15.4-1.3-22.2-3.9-24.7-9.1-39.7-36-42-61.1-2.4-26.4 6.3-54.3 23.8-74.4 5.4-6.2 11.6-12 18.1-17.1 4.8-3.9 10.1-7.3 15.7-10.1 3.3-1.6 13.2-7 16.9-5.6 8.1 3.2 16 6.7 23.6 10.9 8.8 4.9 19.6 10.5 29.6 11 23.1 31.4 25.1 77.4 2.7 109.4z" fill="#fff"/><path d="m1525.1 137.7c2.2 16.7.7 33.3-6.7 49.5-2.4 5.2-5.4 12-9.3 16.3-13.5 14.8-32.3 23.2-52.9 19.2-17.2-3.3-30.8-17-38.3-32.7-1.9-4.3-3.4-8.8-4.6-13.1-2.6-10.6-2.7-21.5-1-32 2.5-13.4 7.8-27 15.2-38.4 4.5-5.4 9.4-10.5 15.1-15 13.6-10.8 33.2-11 48.3-4.1 13.1 6 26.1 17.1 30.2 31.4 1.8 6.3 3.1 12.6 4 18.9z" fill="#fff"/><path d="m1454.1 143.2c-.9 8.3-8.3 14.3-16.6 13.4-8.3-.8-14.3-8.3-13.4-16.6.9-8.2 8.3-14.2 16.6-13.4 8.3.9 14.3 8.3 13.4 16.6z"/><circle cx="1446.8" cy="135.4" fill="#fff" r="4.1"/><path d="m1289.9 145.4c-.9 8.3-8.3 14.3-16.6 13.4s-14.3-8.3-13.4-16.6 8.3-14.3 16.6-13.4 14.3 8.3 13.4 16.6z"/><circle cx="1282.6" cy="137.6" fill="#fff" r="4.1"/><path d="m1529 228.3q-3.7 1.8-7.5 3.2c23-21.5 35.8-34.6 42.3-61.2.1-.4 1-.6.8-.1-3.5 17.4-11 34.1-22 47.8-4.4 3.8-8.9 7.2-13.6 10.3z"/><path d="m1531 238.9q-3.6 1-7.1 1.7c23.5-15.8 36.8-25.6 46.5-48.2.1-.4.9-.4.7 0-5.7 15-14.7 28.7-26.6 39.3-4.4 2.7-8.9 5.1-13.5 7.2z"/><path d="m1248.8 258.4c-28.1-12.2-47.5-38.6-52.2-68.9 0-.3.5-.6.6-.2 6.3 29.4 27.5 52 53.4 66.1 1.7.9-.3 3.7-1.8 3z"/><path d="m1238.7 235.1c-23.4-16.9-34.5-47.8-30.3-75.7 0-.4.9-.8.8-.2-2.4 30.1 13.2 51.9 31.3 74 .8 1-.8 2.7-1.8 1.9z"/><path d="m1408.8 84.4c-11.5-11.2-9-27.5-3.2-40.8.1-.4 1.1-.8 1-.1-1.6 6.8-2.4 13.6-.8 20.5 1.5 6.2 4.5 11.8 6.3 17.9.4 1.5-2.1 3.7-3.3 2.5z"/><path d="m1419 914.2c-21.9 14.6-56 38.7-83.5 25.1-28.4-13.9-27.5-48.8-18.8-75.2 5.4-16.4 18.8-39.5 36.6-49.1.4-4.3 1.9-8.4 2.9-12.7.9-3.8 2-7.6 2.8-11.5.2-1.1 1.6-7.6.3-6.6-.1.1-.3-.1-.2-.2q.3-.4.5-.7c.1-.2.4-.4.6-.1 2.6 4.4.8 10.7.5 15.5-.3 4.4-.5 9-1.2 13.5 4.8-1.6 9.8-2.2 15.1-1.5q3.1.5 6 1.3c-10.4 2-20.2 9-28.3 17.7-12.7 9.5-20.8 26.9-24.5 41-5.5 20.6-3.9 57.9 23.7 61.9 23.4 3.4 46.5-11.2 66.5-21.8 2.4-1.4 2.8 2.3 1 3.4z"/><path d="m1538.3 717.7c13.1 43.3 19 109.3-30.1 132.9-35 16.8-70.2-11.7-87.1-40.8-16.4-28.1-20.6-63.9-20.8-95.9-.2-30 8-66.6 35.5-84 16.9-10.7 40.7-4.2 54.6 9.1 20.7 20.1 35.4 43.1 44.9 69.8q1.6 4.4 3 8.9z"/><path d="m1510.5 841.5c-28.6 14.7-56.5-6.1-73.6-26.1-17.2-20.1-27.4-45.7-30.1-69.9-3.6-32.4-2.7-75.8 24.5-99 7.8-6.6 22.6-10.5 33.1-8.2 20.2 4.6 35.1 22.9 45.7 38.9 5.2 7.8 10.8 16.2 14.6 24.7 10.7 24 16.6 49.9 18.1 75.1 1.5 25.9-5.5 50.8-32.3 64.5z" fill="#fff"/><path d="m1352.3 754.4c-5.2 40.8-24.7 97.8-74.3 99.1-35.3 1-53.9-35.7-57.1-66.1-3.2-29.4 6.5-60.8 18.2-87.4 11-25 31.3-52.3 60.7-56.6 17.9-2.6 35.3 11.6 41.9 27.9 9.8 24.3 13.5 48.8 11.4 74.6q-.3 4.2-.8 8.5z"/><path d="m1283.5 846.6c-29.6 2.1-44.7-26-51.2-49.3-6.5-23.6-5-49.3 2.2-71.1 9.5-29.1 27.3-66 58.9-76 9.2-2.9 23-.7 30.8 5.1 15.1 11.3 20.4 32.4 23 50.1 1.2 8.6 2.6 17.8 2.5 26.5-.4 24.5-5.6 48.9-14.2 71.1-8.8 22.9-24.3 41.6-52 43.6z" fill="#fff"/><path d="m1485.6 807.2c-.9 8.7-8.7 15-17.4 14.1-8.7-1-15-8.7-14.1-17.4s8.7-15 17.4-14.1 15 8.7 14.1 17.4z"/><circle cx="1477.9" cy="799" fill="#fff" r="4.3"/><path d="m1294.9 811.7c-.9 8.7-8.7 15-17.4 14.1-8.7-1-15-8.7-14.1-17.4 1-8.7 8.8-15 17.5-14.1s15 8.7 14 17.4z"/><circle cx="1287.2" cy="803.5" fill="#fff" r="4.3"/><path d="m1343.7 597.9c-6.1 17.7-10.3 31.8-28.3 41-20.1 10.3-42.3 19.7-63.9 26.5-6.4 2-6.4-6.9-3.1-10 15.1-13.5 30.5-21.1 49.3-28.5 9.4-3.7 21.3-5.8 29.3-12.5 5.9-4.9 9.9-11.5 14.8-17.3.8-.9 2.4-.6 1.9.8z"/><path d="m1517.5 658.5c-13.7-4.3-26.2-11.8-40-15.9-15.3-4.4-31-5.5-46.5-8.5-19-3.8-39.8-7.3-44.2-29.7-.1-.4.6-1.1 1-.7 11.1 9.9 27.4 9 41.2 10 13 1 26 1.8 38.8 4 22.5 3.8 46.4 10.1 58.8 31 2.9 4.9-4.5 11.2-9.1 9.8z"/><path d="m1316.5 1009.8c4.3-2.2 9-3.9 12.9-5.9 9.5-4.7 19.3-8.8 29.2-12.4 18.3-6.5 37.4-9.3 56.5-12 19.8-2.9 39.6-3.7 59.6-3.3 11.2.2 22.4 1 33.4 3.3.5.3-89.3 8.8-106.6 11.9-14.7 2.6-75.9 16.3-81.9 17.7q-1.6.4-3.1.7z"/><path d="m1436.2 1026.3q-.3.4-.6.8c-6.1-.8-12.1-1.6-18.2-2.1-14.5-1.4-28.5 1.3-42.8 2 6.3-8.6 16.3-14.6 26.8-17q1.8-.2 3.7-.1c5.5.4 12.8 1.9 19.2 4.6 4.4 3.3 8.2 7.6 11.9 11.8z"/><path d="m935.9 760c-.8 9.3-1.2 19.9-4.5 28.4-3.1 8.1-7.1 15.9-12 22.7-9.1 12.5-20.7 22.3-35.8 23.5-14.4 1.1-28.3-5-38.2-17.4-11.7-14.8-16.4-33-15.8-51.3.3-9.2.5-18.5 2.5-27.4 6.3-28.7 30.2-54.1 57.1-56.5 17-1.5 29 9 36.6 23.9 8.4 16.3 11.5 37.7 10.1 54.1z"/><path d="m932.7 746.1c1.1 9.9.6 20.9-.8 30.6-1.8 11.8-7.1 21.7-13.3 30.9-11.5 16.9-29 27-48.6 22-18.1-4.6-31.5-24.1-35.9-43.3-2.4-10.4-2.6-21-1.1-31.2 2.8-16.7 9.7-33.6 19.7-45.4 12.4-14.5 35.6-25.4 53.4-15.1 16.5 9.5 24.4 32.5 26.6 51.5z" fill="#fff"/><path d="m1044.1 820.7c-5.8-.4-11.6-1.9-17.2-4.4-17.8-8-29.7-22.7-36.3-39.8-3.3-8.6-6.7-17.3-8.2-26.5-4.8-29.5 9.6-64.3 36.1-79.2 16.6-9.4 33-5.4 46.5 4.7 15 11.1 26.5 29.4 31.5 45.3 2.8 8.8 6.6 18.8 6.6 28.2 0 9-1 18-3.4 26.7q-.4 1.6-.9 3.3 3-1.7 6-3.2c2.1-1-17.8 19.9-28.9 28.4-7.6 5.8-38 25.2-39.9 26.4 1.9-3.6 5-6.8 8.1-9.9z"/><path d="m1003.2 793.2c-6.5-8.5-10.8-18.1-13.3-28.3-3.7-16.7-3.3-35.6 2.3-51.2 6.9-19.3 26.2-40.4 48.4-39.3 20.4 1 37.5 18.5 47.2 35 5.1 8.6 8.9 18.9 11.2 28.6 2.9 11.7 1.3 23.4-1.4 34.9q-1 4.1-2.5 8.1c-10.5 6-20.3 12.9-29.7 20.5q-8.7 6.9-16.5 14.7-.5.4-.9.8c-17.4 0-34.5-10.4-44.8-23.8z" fill="#fff"/><path d="m892.6 800.7c-1.9 9.5-11.3 15.6-20.8 13.7-9.5-2-15.7-11.4-13.7-20.9s11.4-15.6 20.9-13.7c9.5 2 15.6 11.4 13.6 20.9z"/><path d="m889.7 791.8c-.6 2.5-3.1 4.2-5.6 3.6-2.6-.5-4.2-3-3.7-5.6.5-2.5 3-4.2 5.6-3.7 2.6.6 4.2 3.1 3.7 5.7z" fill="#fff"/><path d="m1045.4 785.9c-2 9.5-11.3 15.6-20.9 13.6-9.5-2-15.6-11.3-13.6-20.8s11.3-15.7 20.8-13.7c9.6 2 15.7 11.3 13.7 20.9z"/><path d="m1042.4 776.9c-.5 2.6-3 4.2-5.6 3.7s-4.2-3-3.7-5.6c.6-2.6 3.1-4.2 5.6-3.7 2.6.6 4.2 3.1 3.7 5.6z" fill="#fff"/><path d="m1013.8 839.1c-9.8 16.9-22.2 32.4-39.8 41.5-8.9 4.6-18.7 7.6-28.7 8.7-5.7.6-16.2 3-21.1-.8-7.2-5.6-6-16.4-6.2-24.7-.3-11.5 1-23.2 3.5-34.5 4.5-20.5 11.9-39.1 22.5-57.2.3-.6 1.4-.6 1 .2-12.6 30.3-22.9 67.8-17.3 100.8 2.8 16.7 39.3 1.9 47.8-3.1 14.1-8.2 24.7-20.6 35.3-32.8 1.6-1.9 4.3-.5 3 1.9z"/><path d="m912.2 642.4c2.2 4 3.4 8.6-1.8 9.3-5.1.7-12.2-6.8-16.7-9.4-17-10.1-40.9-21.2-59.4-15.5q-.4.1-.7.2-1 .3-2 .8c-6.8 2.9-11.1 9.6-14.3 16.8-1.2-6.3 2.7-15.3 4.9-19.6 4.5-9.2 15.7-14.7 25.6-15.2 13.8-.7 28.5 3.7 41.1 11.1 7.4 4.4 14.6 9.4 20 16.5.9 1.2 2.2 3.1 3.3 5z"/><path d="m1093.4 614.7c-3.5-2.2-7.1-4.3-10.9-6.1-13.6-3-25.3.4-38.3 5.4-13.2 5-26.1 11.4-37.8 19-5.4 3.5-10.6 7.4-15.8 11.3-2.1 1.7-4.8 1.8-7.4 1-2.8-.9-15-5.5-10.5-9.9 16.8-16.2 38.6-27.4 61.3-34.3 20.2-6.1 47.3-7.3 60 13.2.2.3-.4.5-.6.4z"/><path d="m1005.1 972.1c3.4 8.3 5.1 17 4.9 25.5-.2 5.9-4.1 17-9.8 19.9-8.9 4.4-23.3 3.6-31.9-1.6-9.1-5.5-2.5-24.1-1.6-31.6 1-8.9 2.5-20.4.7-30.5q-.3-2.3-1.1-4.6c-3.5-1.6-7.1-3.1-10.7-4.7-6.5-3.1-14.5-7.9-14.4-16 .1-4.9 1-9.1 2.6-13.2.4 2.6 1.2 5.1 2.3 7.4 3.9 8.6 15 11.3 22.8 15.3 15.1 7.8 28.5 19.3 36.2 34.1z"/><path d="m966.8 1000.8c1.6-10.4 5-20.6 6.4-31.2.8-5.5 1.4-11.4 1.1-17 4.1 1.9 8.2 3.9 12.2 6.1 1.9 1.1 3.5 2.4 5 4 2.5 3.3 4.8 7 6.9 11q0 0 0 .1c-8.3 4.2-15.2 11.1-20.7 18.7-2.3 3.1-9.5 14.3-8.6 19.7-2.1-2.9-3-6.8-2.3-11.4z" fill="#fff"/><path d="m1003.6 1010.3c-3.7 8.7-16.6 8-23.9 7.4-3.8-.3-6.9-1.7-9.1-3.7 1.6-8.6 8.2-18.5 14.1-24.7 3.8-4 8.2-7.5 12.7-10.7.9-.7 1.7-1.1 2.5-1.5 1.2 3 2.4 6.1 3.6 8.9 2.6 8.5 3.1 17.1.1 24.3z" fill="#fff"/><path d="m1019.4 1023.3q0 .5-.2.9c-8.6 20.6-35 22.2-51.6 16.1-8-2.9-16.1-6.2-16.2-18.2 0-3.5 1-6.9 2.6-10-.3 3.6-.1 7 .9 9.9 2 5.8 7.5 8.8 11.7 10.9 5 2.4 10.3 3.6 15.4 4 13.2 1 26.9-3.9 37.4-13.6z"/><path d="m999.7 349.7c-14.9-2-29.7-7.8-45.2-8.1-16.7-.4-27.6 4.5-42.2 8-1.4.4-1.6-.7-.5-1.1 15.1-5.3 27.3-12.8 46.6-13 14.3 0 39.2 2.9 47.2 10.5 2 1.9-3 4.1-5.9 3.7z"/><path d="m989.7 374.5c-6.9 2.5-13.9 3.5-21.5 5.1-3.9.8-10.5 3.5-14.7 2.4q0 0 0 0c-.5-.1-.8-.4-.6-1 1.6-3.6 8.4-6 13.9-7.4 7.5-1.8 14.6-3.2 22.8-2.8 3.7.2 2.1 2.9.1 3.7z"/><path d="m928 132.7q-.3 3.9-.8 7.8c-3.2 25-12.3 56.6-31.4 75.3 1 .9 1.9 1.8 2.6 2.9.2.3.1.7-.2 1.1-1.6-.4-4.9-1.5-5.1-1.6q0 .1-.1.1c-1.4-.5-26.5-12.4-38.3-16.6-1.6-.6-3.3-1.3-4.9-2-9.4-3.7-19-6.5-28.9-8.6-4.8-1-9.6-1.6-14.4-2.6-3.9-.9-7.8-2-11.7-2.9 4.7-.6 9.5-.7 14.3-.5-1.3-4.8-2.2-9.6-2.7-14.3-2.9-27 6-55.8 16.8-80.3 1.7-3.8 3.6-7.7 5.7-11.5-2.8-1-2.5-6.5-.1-8.6 13-11.7 26.3-18.3 42.5-24.7 8.1-3.2 18.3-4.9 25.2-10.7 5.2-4.3 8.5-9.9 12.8-14.9.7-.8 2.1-.6 1.7.6-3.1 8.9-5.6 16.7-10.2 23.3 7.4 4.8 13.4 12.2 16.6 20.1 9 22.4 12.4 44.9 10.6 68.6z"/><path d="m911.8 185.2c-4.3 11.1-10.4 21.2-18.9 28.5-3.9-2.5-8.5-4.3-11.9-6.1-9.5-4.9-19.6-8.8-29.6-12.4-10.1-3.7-21.3-7.2-32.5-9q-1.1-3.2-1.9-6.3c-6-21.7-4.7-45.3 1.9-65.3 3.9-11.9 9.3-25.1 16.6-37 17.4-5.7 35-13.3 51.1-21.5 4.8-2.5 8.5-5.4 11.4-8.7 1.2.6 2.4 1.3 3.3 2 13.9 10.4 18.8 29.9 21.2 46.1 1.1 7.9 2.4 16.4 2.3 24.4-.4 22.5-5.1 44.9-13 65.3z" fill="#fff"/><path d="m1127.2 161.8c-15.3 4.8-65.7 19.9-75.4 23.5-12.7 4.7-25.2 9.9-37.3 16-1.4.7-2.9 1.5-4.5 2.4.2.2-11.6 6-18.1 7.8q3.7-2.4 7.5-4.8-2.1-2.5-4-5.1c-18-25.1-25.3-58.6-28.4-88.8-2.3-21.8-.2-47.7 12.1-67.2-4.6-3.3-8.1-7.9-9.5-14.6-.1-.4.5-.9.8-.6 9.5 7.9 23.5 7.2 35.3 8 11 .8 22.2 1.4 33.1 3.1 19.3 3.1 39.7 8.1 50.3 24.7 2.3 3.7-3 8.4-7 8q6.7 10.2 12 21.5 1.9 4 3.6 8.2c7 17 13.1 38 14.3 58.7 4.8-.8 9.5-1.3 14.2-1.5.7-.1.9.3 1 .7z"/><path d="m1054.2 178.9c-16.6 5.9-31.6 13.7-46.3 22.5-16.4-17.6-27.2-40.3-31.7-62.4-5.6-28-8.5-65 7.7-90.6 6.9 3.3 15.4 4.7 23.5 6.2 13.2 2.4 26.7 3.2 39.7 6.8 9.8 2.7 18.9 7.3 28.4 10.7 3 4.1 5.9 8.4 8.3 12.7 12.2 22.5 20.1 47.3 23.7 71.9q.5 3.2.8 6.5c-18.4 3.2-36.9 9.6-54.1 15.7z" fill="#fff"/><path d="m1004 101.6c-.9 7.9-8 13.7-16 12.9-8-.9-13.8-8-12.9-16 .8-8 8-13.8 16-12.9 7.9.8 13.7 8 12.9 16z"/><circle cx="996.9" cy="94" fill="#fff" r="3.9"/><path d="m849.4 116.1c-.8 8-8 13.8-16 12.9-8-.8-13.7-8-12.9-16s8-13.7 16-12.9 13.8 8 12.9 16z"/><circle cx="842.4" cy="108.6" fill="#fff" r="3.9"/><path d="m998.8 257.3c-11.6 15.5-28.1 26.5-46.6 32-9.7 2.9-19.2 4-29.2 4.2-8.9.3-12.5-4.9-15.2-13.1-5.7-18.1-10.1-38.2-1.5-56.2 3.9-8 11.8-19.1 21.1-25.6-.2-4.4.5-10 2.9-13.1.2-.4.9-.5.7.1-.6 1.9-.1 5 0 6.9.1 1.3.2 2.6.3 3.8 4-2.1 8.2-3.1 12.3-2.7.7.1.2 1-.2 1.1-10 1.7-19 12.9-24.5 20.7-4.4 6.4-6.7 14-6.9 21.7-.2 7 .6 14.3 2.3 21.1 1.5 6.2 2.9 14 5.3 19.9 3.4 8.2 12.2 6.3 19.5 5.2 7.3-1.2 14.5-2.9 21.2-5.8 13-5.7 24.5-14.1 35.1-23.3 2.4-2.1 5.3.6 3.4 3.1z"/><path d="m966.8 46.9c-11.2-1.3-17.2-14.8-20.3-24.2-.1-.3.4-1 .7-.6 6.3 8 13.8 14.9 21.9 21.1 1.6 1.2-.9 3.9-2.3 3.7z"/><path d="m919.9 28.6c-2 4.5-3.7 9.5-6.5 13.5-.9 1.2-4.7 3.4-4.8.4-.1-4.3 2.2-7.9 4.6-11.3 1.3-1.8 2.5-3.8 3.9-5.6.8-1.2 3.3-3.6 3.2-5.1 0-.5.7-1.2 1-.6 1.4 2.2-.5 6.6-1.4 8.7z"/><path d="m639.4 202.2c-3.9 4.2-13.2 16.4-15.9 20.2-4.9 6.8-16.7 21.3-16.3 20.3 4-10.4 24-45.6 31.1-47.7 4.9-1.4 3.1 4.9 1.1 7.2z"/><path d="m661.9 195.2c-3.7 3.9-12.3 15.3-14.8 18.8-4.6 6.4-15.6 20-15.2 19 3.7-9.7 22.3-42.5 29-44.5 4.5-1.3 2.9 4.6 1 6.7z"/><path d="m679.3 191.3c-3 3.3-10.2 12.7-12.3 15.6-3.7 5.3-12.8 16.5-12.5 15.7 3.1-8.1 18.5-35.1 24-36.8 3.7-1.1 2.4 3.8.8 5.5z"/><path d="m425.5 204.5c-3.5 3.2-12 12.5-14.5 15.4-4.5 5.3-15.3 16.4-14.9 15.6 4.1-8.3 23-35.8 29-37 4.1-.8 2.2 4.3.4 6z"/><path d="m439.5 205.6c-3.4 2.9-11.5 11.5-13.8 14.1-4.4 4.9-14.6 15-14.2 14.2 3.9-7.6 22.2-32.8 27.8-33.9 3.8-.6 1.9 4.1.2 5.6z"/><path d="m453.8 207.3c-2.7 2.5-9.2 9.7-11.1 12-3.5 4-11.8 12.6-11.5 12 3.1-6.4 17.7-27.6 22.4-28.5 3.1-.7 1.6 3.2.2 4.5z"/><path d="m477.7 235.5c6.7-21.9 22.8-42.6 42.7-50.4.1-.8.3-1.6.5-2.4-.1-2.5 0-5 .4-7.3 0-.2.2-.5.4-.7q0 0 0-.1s0-.1.1 0q0-.1 0-.1.1.3.3.5c1.5 2.4 2.8 4.4 3.9 7.2 1 2.5 1.9 5 2.6 7.7 7.7.9 13.8 4 20.2 7.1q.8.6 1.5 1c1.5 1 2.9 2 4.3 3.1-15.7-3.6-33-10.3-47.1-1-2.5 2.5-4.9 5.3-6.9 8.4-6.9 10.6-12.7 25.9-13 40 2.1 2 5 3.6 8.2 5.2 4.8 2.2 9.7 4.4 14.6 6.2 12.3 4.7 29.4 10.5 42.6 6.3 3.5-1 6.5-2.6 9.4-4.4 4.1-3.2 8-6.7 11.6-10.5-3.3 5.1-7.2 9.7-11.7 13.7-11 9.5-26.5 9.8-40.1 7.6-12.1-1.9-24.5-7-34.4-14.1-5.7-4.1-9.8-9.3-10.4-16.4-.1-2.2 0-4.4.3-6.6z"/><path d="m437.9 60.2c4.1-11.1 12.7-23.3 22.5-27.4 18-7.5 28.9 7.9 30.4 24.3q0 .3-.1.7c-5.4-6.7-13.4-11.2-22.5-12-8.8-.9-16.5 3-23.4 8.1-.5.4-3.7 3.3-6.9 6.3z"/><path d="m589.7 60.2c.9-2 1.8-3.8 2.7-5.4 5-9.3 12.3-17.9 21.6-23.2 8.2-4.6 18.7-8 27.1-1.7 8.8 6.5 15.4 14.3 18.3 24.9q0 0 0 0c-9.8-5.7-21.4-8-33-8.5-9.1-.5-17.8.3-26 4.5-4.4 2.3-7.7 5.7-10.7 9.4z"/><path d="m510.1 153c-1.1 6.7-4.1 12.2-9.3 17.3q-.8.8-1.7 1.5c-7.4 5.2-15.3 9.2-24.2 11.4-4.5 1.1-10.1 2-15.7 2.1q-.5.1-1 .2c-6.5.6-14.1.1-19-4.7-5.5-5.6-6.4-14.3-8-21.6-1-4.8-3.2-10.9-7.6-11.4.5-.3 1-.7 1.6-1 3.2-1.1 7-1.5 8.4 1.3 3.7 7.5 1 16.4 8.2 22.9 7.1 6.5 18.6 6.9 28.3 5.2 7.8-2.2 14.9-5.2 21.5-8.9q1.9-1.5 3.7-3.2c5.2-3.4 9.6-8 11.8-13.5.3 2.2-.5 4.7-1.7 7.1 1.3-1.5 2.6-2.9 4-4.2.2-.2.4-.3.7-.5z"/><path d="m645.9 170.5c-10.7 7.8-25.2 11.4-37.9 9.1-17.8-4.8-34-18.8-36.4-39.7 1.6 3.2 3 6.1 4.5 8.7-.5-2.4-.8-4.7-.6-6.5 1.7 4.6 4.3 8.9 7.5 12.5 1.3 1.8 2.8 3.3 4.4 4.8q.9.5 1.8.9c5.1 3.8 10.9 6.3 16.9 7.1 11.2 3 22.7 1.2 33.6-2.6 7.8-4.1 10.6-10.2 15.7-17.3 2.9-4 9.3-8.9 14.7-9.4 2.2-.2 3.7.9 5.1 2.2-5.9-.5-11.5 7.8-14.7 12.7-3.5 5.1-6.8 10.1-10.7 14.5q-1.9 1.6-3.9 3z"/><path d="m505.6 126.3c-12.4-5.1-25-10.4-38.8-7.8-12.8 2.4-22.3 8.5-30.5 18.5-.2.2-.5 0-.3-.2 7.5-11.1 17.4-19.5 31.1-21.4 14-2 28.6.1 39.8 9.2.7.6-.5 2-1.3 1.7z"/><path d="m655.2 127c-19.6-18.9-46.6-15.4-68-1-.2.1-.2-.1-.1-.3 19.7-15.3 51.7-22.4 69.4-.1.5.7-.6 2.1-1.3 1.4z"/><path d="m631.9 313.8c-3.3 5.9-8.3 10.5-15.2 13.4-7.2-.3-14.4-2.5-21.5-3.3-6.9-.8-13.9-1.7-20.9-2.3-12.2-1.1-24.7-1.6-37-.9-3.3.2-6.4.7-9.5 1.3q-2 .2-4.1.5c-7.2 1.2-14.1 3.3-21.1 5.2-4.9-1-9.2-2.9-12.7-6.2q.3-.2.7-.2c4.9.1 9.2-.3 13.6-1.5 2.7-1.6 5.4-3.3 7.9-4.7 5.4-2.8 10.7-5.6 16.4-7.9 7.8-3.2 17.6-4.5 26.3-3.4 18.5 2.5 54 22.5 75.5 11 .7-.3 1.1-.8 1.6-1z"/><path d="m549.3 316.1c-9.5-.1-18.8.4-28.3 1.2-1 .1-2 .2-3 .4q1.2-1 2.3-1.9c11.1-4.2 21.3-6.3 34.2-4.7 7.6.9 15.3 3.1 22.9 5.4-9.4-.4-18.8-.2-28.1-.4z" fill="#fff"/><path d="m552.9 361c-10-.9-19.4-3.7-25.9-8.9 9.5 2.1 20.9.4 30.1-.5 7.1-.8 14.1-2 21.2-3.1q0 .1.1.1.6.1.9.5c-3.1 2-6.6 3.7-9.7 5.2-5.2 2.7-10.7 5.3-16.7 6.7z"/></svg>