<svg height="470" viewBox="0 0 315 470" width="315" xmlns="http://www.w3.org/2000/svg"><path d="m297.5 296.6c-3-.4-5.7-1.8-8.5-2.9-4.8 7.4-7.6 17.6-10.4 25.2-3.9 10.4-7.6 20.8-11.1 31.3-5.6 17.1-11.6 34.2-19.8 50.2-14.4 28.2-35.5 56.4-70.2 58.9-33.8 2.4-60-25.9-75.8-52.7-9.4-15.9-17.3-32.7-27.6-48.1-9-13.6-19.6-25.8-30.6-37.8-5.8-4.3-11.2-9.2-15.8-14.9-.4-.5.7-1.2 1.1-.8 17.1 16.9 41.8 23.9 64.8 28.7 23.1 4.9 46.9 6.6 70.4 4.2 42.7-4.4 83.3-21.1 117.8-46.1-2.5-.5-5-.9-7.5-1.2-1.3-.1-1.2-1.6-.3-2.1 7.9-5 26.4-12.9 32.3-1.1 2.6 5.4-3.9 9.9-8.8 9.2z"/><g fill="#fff"><path d="m161.5 345.6c25.1-1.8 49.9-10.5 73-20.1 10.5-4.3 20.9-9.3 30.7-15.4-13.4 33.3-53.9 44.4-86.5 49.4-18.3 2.8-36.9 4.4-55.4 1.7-15.8-2.4-30-11.1-41.1-22.5 26.2 7.4 55.2 8.5 79.3 6.9z"/><path d="m136.4 434.4c-4.6-11.5 1.7-23.4 9.1-32.4.7-.9-.4-1.4-1.1-.7-5.4 5.4-14.6 16.8-15.1 26.3-6-6.2-11.4-13.1-16.2-19.9q0 0 0 0c7.1-7.1 19.5-12.9 29.5-13.9 6.2-.7 11.2 1.1 15.1 5.9 1.5 1.8 1.9 3.6 3.5 5.3-10 8.7-17.4 19.9-19.9 33.5q-2.5-2-4.9-4.1z"/><path d="m182.5 450.3c-14.5 2.7-27.7-2.1-39.4-10.5 7.5-22 24-36.7 45.6-45.6 18.7-7.7 38.2-7.2 51.2 8.5-12.7 22.9-29.6 42.3-57.4 47.6z"/><path d="m225.9 386c.8-5.4 6.2-10.2 10.7-12.1 2.5-1.1 5.7-1.7 8.5-1.9 2.2-.2 6.5-.4 9.1.3-1.7 4-3.4 8.1-5.3 12.2-4-2.2-8.3-3.7-12.8-4.2-.3-.1-.6.4-.3.5 4.6 1.4 8 4 11.8 6.6-1.7 3.6-3.5 7.2-5.3 10.8-4.3-6.3-10-10.2-16.4-12.2z"/><path d="m274.4 318.9c-6.3 16.8-12 33.9-18.9 50.5-2.3-1.6-5.3-2.1-7.9-2.8-4.8-1.4-9.6.7-13.8 2.9-5.5 2.8-11.3 9.5-9.5 16-10.3-2.8-22.2-1.3-33.2 2.5-9.5 3.3-18.5 8-26.4 14.1-.3-9.7-13.4-13.4-21.3-12.3-11.7 1.5-23.8 7.6-30.8 17.2-3.6-5.1-6.8-10.2-9.6-14.9-8.9-14.7-17.1-29.8-27.4-43.7-5.5-7.5-12-13.8-18.9-19.6 6.9 3.6 14.2 6.4 21.8 8.8 8.9 14.5 20.9 24.7 37.9 28.7 20.6 4.8 41.5 2.3 62-1.2 35.3-6.1 80-20.9 92.3-58.5 4-2.7 7.8-5.5 11.5-8.5-3.4 6.8-5.5 14.7-7.8 20.8z"/></g><path d="m200.1 237.7c.1.2-.2.5-.3.3-8.3-13.2-23.5-24.3-38-29.9-4.1-1.5-8.3-3.3-12.6-3.8-7.3-.8-11 3.7-13.4 9.7-3 7.7-5 15.3-6.5 23.3-2.9 16-3.2 35.1 6.6 49 10.9 15.4 26.6 18 44.1 13.5 1.3-.3.8 1.6 0 1.9-19.1 8.2-37.5 3.1-50.2-12.9-12.5-15.7-15.5-39.4-10.5-58.4 2.8-10.7 7.8-20.9 16.1-28.4 5.2-4.6 11.1-5.5 17.3-4.2.6-2.4 1.2-5 1.7-7.5.3-1.7 1.9-3.5 3.8-3.4 1.6.1 2 1.8 1.5 3-1 3-2.1 6-3.4 8.9q.3.1.5.1c18.9 6.5 35.9 20 43.3 38.8z"/><path d="m200.1 237.7c.1.2-.2.5-.3.3-8.3-13.2-23.5-24.3-38-29.9-4.1-1.5-8.3-3.3-12.6-3.8-7.3-.8-11 3.7-13.4 9.7-3 7.7-5 15.3-6.5 23.3-2.9 16-3.2 35.1 6.6 49 10.9 15.4 26.6 18 44.1 13.5 1.3-.3.8 1.6 0 1.9-19.1 8.2-37.5 3.1-50.2-12.9-12.5-15.7-15.5-39.4-10.5-58.4 2.8-10.7 7.8-20.9 16.1-28.4 5.2-4.6 11.1-5.5 17.3-4.2.6-2.4 1.2-5 1.7-7.5.3-1.7 1.9-3.5 3.8-3.4 1.6.1 2 1.8 1.5 3-1 3-2.1 6-3.4 8.9q.3.1.5.1c18.9 6.5 35.9 20 43.3 38.8z"/><path d="m226.6 23.5c21.6-1.4 37.1 17 43.9 34.9.1.3-.2.4-.4.2-9.7-11.7-26.1-26.3-42.9-21.9-16.1 4.2-21.6 22.3-29.2 34.9-1.8 3.1-5.6-.8-5.5-3.2.9-19.9 11.7-43.3 34.1-44.9z"/><path d="m133.1 106.7c2.5 8 4 16.5 4.7 24.9 1.1 15.2-.8 30.5-5.7 44.9-2.1 6.1-4.9 12.2-8.1 17.7-10.6 18.4-29.1 34.5-50.9 36.4-17.6 1.6-34.3-4.7-46.1-17.9-12.6-14-18.1-31.8-19.6-50.3-.9-10.7.6-21.6 3.2-32 3.1-12.1 9.2-23.2 16.5-33.3 10.2-13.9 25.5-24.4 41.8-29.6 22.7-7.4 45.4 2.1 57.1 22.5 2.9 5.3 5.3 10.9 7.1 16.7z"/><path d="m134.4 133.4c1.2 13.5 0 27.4-4.3 39.9-6.5 19.4-18.8 39.7-38.3 48.1-5.3 2.2-11.5 3.8-17.2 4.3-11.3 1-23.2.3-32.9-5.9-9.1-5.7-16.7-14.5-21.7-23.8-2.8-5.1-5-10.8-6.4-16.5-2.8-11.2-2.8-22.6-.9-33.7 3.6-18.2 12.2-36.7 24.5-49.7 15.3-16.1 43.6-28.5 65-17.8 7 3.5 14.4 11.2 19.2 17.3 5.2 6.6 8.5 14.4 10.5 22.6 1.2 4.9 2 10 2.5 15.2z" fill="#fff"/><path d="m125.9 55.2c.1 2.4-3.7 6.2-5.5 3.2-7.6-12.6-13.2-30.7-29.3-34.9-16.8-4.3-33.2 10.3-42.9 22-.1.2-.5.1-.4-.1 6.8-18 22.3-36.4 43.8-35 22.4 1.5 33.3 24.9 34.3 44.8z"/><path d="m106.4 151.7c-1.7 16.1-16.2 27.8-32.3 26.1-16.1-1.8-27.8-16.2-26.1-32.3 1.7-16.2 16.2-27.8 32.3-26.1s27.8 16.2 26.1 32.3z"/><path d="m100 137.3c-.5 4.4-4.4 7.5-8.7 7-4.4-.4-7.5-4.3-7-8.6.4-4.4 4.3-7.5 8.6-7 4.4.4 7.5 4.3 7.1 8.6z" fill="#fff"/><path d="m291.5 143.2c.1 8.4.6 18-1.9 26.1-2.4 7.7-5.7 15.2-10.1 22.1-8 12.4-18.8 22.8-33.8 25.9-14.4 2.9-28.8-.8-39.9-10.6-13.1-11.8-19.4-27.6-20.4-44.1-.6-8.3-1.1-16.7 0-25 3.8-26.7 25.6-52.8 52.4-58.5 16.9-3.6 29.9 4.3 38.9 16.6 9.8 13.6 14.8 32.5 14.8 47.5z"/><path d="m287.1 131c2.1 8.8 2.5 18.7 1.9 27.7-.7 10.8-5.1 20.5-10.6 29.6-10 16.8-26.7 28.2-46.8 26.3-18.5-1.7-33.8-17.5-39.9-34.2-3.4-9.1-4.4-18.6-3.8-28 1.3-15.4 6.7-31.5 15.7-43.4 11.2-14.8 33.5-27.7 52.3-20.8 17.3 6.4 27.3 26 31.2 42.8z" fill="#fff"/><path d="m291.5 143.2c.1 8.4.6 18-1.9 26.1-2.4 7.7-5.7 15.2-10.1 22.1-8 12.4-18.8 22.8-33.8 25.9-14.4 2.9-28.8-.8-39.9-10.6-13.1-11.8-19.4-27.6-20.4-44.1-.6-8.3-1.1-16.7 0-25 3.8-26.7 25.6-52.8 52.4-58.5 16.9-3.6 29.9 4.3 38.9 16.6 9.8 13.6 14.8 32.5 14.8 47.5z"/><path d="m287.1 131c2.1 8.8 2.5 18.7 1.9 27.7-.7 10.8-5.1 20.5-10.6 29.6-10 16.8-26.7 28.2-46.8 26.3-18.5-1.7-33.8-17.5-39.9-34.2-3.4-9.1-4.4-18.6-3.8-28 1.3-15.4 6.7-31.5 15.7-43.4 11.2-14.8 33.5-27.7 52.3-20.8 17.3 6.4 27.3 26 31.2 42.8z" fill="#fff"/><path d="m263.9 147.1c-1.5 14.2-14.2 24.5-28.4 23s-24.5-14.3-22.9-28.4c1.5-14.2 14.2-24.5 28.4-23 14.1 1.5 24.4 14.2 22.9 28.4z"/><path d="m258.3 134.5c-.4 3.8-3.9 6.6-7.7 6.2s-6.5-3.8-6.1-7.7c.4-3.8 3.8-6.5 7.6-6.1s6.6 3.8 6.2 7.6z" fill="#fff"/></svg>